<svg xmlns="http://www.w3.org/2000/svg" viewBox="0 0 24 24" fill="currentColor" stroke="none">
  <!-- ICT Equipment Management icon -->
  <path fill="#4f46e5" d="M20 3H4c-1.103 0-2 .897-2 2v14c0 1.103.897 2 2 2h16c1.103 0 2-.897 2-2V5c0-1.103-.897-2-2-2zm0 16H4V5h16v14z" />
  <!-- Server/Equipment Rack -->
  <path fill="#6366f1" d="M6 7h12v2H6zM6 11h12v2H6zM6 15h12v2H6z" />
  <!-- Status lights -->
  <circle fill="#4ade80" cx="17" cy="8" r="0.5" />
  <circle fill="#facc15" cx="17" cy="12" r="0.5" />
  <circle fill="#f87171" cx="17" cy="16" r="0.5" />
</svg>